<svg version="1.1" viewBox="0.0 0.0 960.0 720.0" fill="none" stroke="none" stroke-linecap="square" stroke-miterlimit="10" xmlns:xlink="http://www.w3.org/1999/xlink" xmlns="http://www.w3.org/2000/svg"><clipPath id="g3b557bacad6_0_0.0"><path d="m0 0l960.0 0l0 720.0l-960.0 0l0 -720.0z" clip-rule="nonzero"/></clipPath><g clip-path="url(#g3b557bacad6_0_0.0)"><path fill="#ffffff" d="m0 0l960.0 0l0 720.0l-960.0 0z" fill-rule="evenodd"/><path fill="#b3b3b3" d="m114.6063 53.11286c-12.587929 0 -22.70604 10.118111 -22.70604 22.703415l0 66.22309c0 12.585297 10.118111 22.703415 22.70604 22.703415l69.34646 0c12.503937 0 22.70604 -10.118118 22.70604 -22.703415l0 -66.22309c0 -12.585304 -10.202103 -22.703415 -22.70604 -22.703415z" fill-rule="evenodd"/><path fill="#b3b3b3" d="m241.06561 53.11286c-12.587921 0 -22.70604 10.118111 -22.70604 22.703415l0 66.22309c0 12.585297 10.118118 22.703415 22.70604 22.703415l69.26511 0c12.587921 0 22.706024 -10.118118 22.706024 -22.703415l0 -66.22309c0 -12.585304 -10.118103 -22.703415 -22.706024 -22.703415z" fill-rule="evenodd"/><path fill="#b3b3b3" d="m367.48425 53.11286c-12.587921 0 -22.706024 10.118111 -22.706024 22.703415l0 66.22309c0 12.585297 10.118103 22.703415 22.706024 22.703415l69.346466 0c12.587921 0 22.706024 -10.118118 22.706024 -22.703415l0 -66.22309c0 -12.585304 -10.118103 -22.703415 -22.706024 -22.703415z" fill-rule="evenodd"/><path fill="#b3b3b3" d="m746.82153 53.11286c-12.585327 0 -22.706055 10.118111 -22.706055 22.703415l0 66.22309c0 12.585297 10.120728 22.703415 22.706055 22.703415l69.265076 0c12.587952 0 22.706055 -10.118118 22.706055 -22.703415l0 -66.22309c0 -12.585304 -10.118103 -22.703415 -22.706055 -22.703415z" fill-rule="evenodd"/><defs><linearGradient id="g3b557bacad6_0_0.1" gradientUnits="userSpaceOnUse" gradientTransform="matrix(6.444063509904366 0.0 0.0 6.444063509904366 0.0 0.0)" spreadMethod="pad" x1="114.84008906653439" y1="10.705780154577818" x2="114.84006361023737" y2="17.149843664431902"><stop offset="0.0" stop-color="#ffffff"/><stop offset="1.0" stop-color="#4f81bd"/></linearGradient></defs><path fill="url(#g3b557bacad6_0_0.1)" d="m753.4387 109.95538c-5.430481 -1.0682449 -8.803162 -3.8661423 -8.309692 -6.745407c0.4960327 -3.0419998 2.5511475 -4.359581 2.6325073 -1.7270355c0.3307495 8.062988 21.472473 5.0183716 22.952759 -3.291336c0.41210938 -2.4671936 0.08135986 -2.8792725 -1.6456299 -2.4671936c-4.8530273 1.1522293 -10.036743 0.16535187 -13.818909 -2.5511856c-3.538086 -2.5485535 -4.9370117 -3.207344 -7.404236 -3.207344c-3.7033691 0 -5.43042 2.1391068 -3.1259766 3.7847748c2.30188 1.645668 1.1522217 2.1391068 -1.8110352 0.90550995c-6.826721 -2.8792648 -0.41204834 -10.283463 8.062988 -9.543304c3.2887573 0.32808685 3.9475098 0.5748062 7.979004 3.291336c4.5249634 3.0419998 10.118164 3.454071 6.826782 0.49343872c-9.540649 -8.309708 0.9055176 -19.908134 18.099731 -19.908134c16.698181 -0.08136749 24.102356 10.283463 13.818909 19.330711c-2.220459 1.8923874 -1.892395 2.7165298 0.98687744 2.7165298c1.236206 0 6.748047 -1.9763794 6.8294067 -2.551178c0.32806396 -1.8923874 10.446167 -3.619423 13.818909 -2.385826c6.0892334 2.2204742 3.538025 9.296585 -3.2886963 9.296585c-1.9737549 0 -1.9737549 -0.49343872 0 -1.0708618c3.2886963 -0.90289307 3.7821045 -3.7007904 0.6561279 -4.1128616c-2.6298828 -0.32808685 -4.769043 0.41207123 -9.787415 3.1259842c-5.34906 2.9606247 -6.9107666 3.3727036 -11.682373 2.9606247c-3.2913818 -0.24671936 -3.78479 0.1653595 -3.4541016 3.2099762c0.5748291 4.771652 5.758545 6.910759 11.351746 4.687668c5.0997314 -1.9737549 4.112854 -6.005249 -1.0708618 -4.77166c-2.1365356 0.49606323 -2.7139282 0.24671936 -1.6430664 -0.82151794c0.98687744 -0.98687744 3.0419922 -1.4803162 6.498657 -1.4803162c1.9737549 0 3.2887573 -0.16535187 4.5249634 -0.7401581c2.220459 -0.90550995 3.6194458 -0.7401581 4.112854 0.49343872c0.49346924 1.3149643 -0.41204834 2.1391068 -2.7979126 2.6325455c-1.8110352 0.32808685 -1.892395 0.41207123 -2.1390991 2.1391068c-1.892395 11.023621 -29.286072 8.472443 -28.299194 -2.6325455c0 -0.33071136 -0.5748291 0.49343872 -1.3150024 1.7270355c-4.112854 7.1574783 -16.5354 11.351707 -27.559021 9.212601zm23.527527 -22.128609c1.3989868 -0.49343872 -0.98687744 -2.0551224 -4.2781982 -2.713913c-3.2886963 -0.6587906 -3.0419922 -0.6587906 -3.1259766 0.16535187c-0.32806396 1.645668 4.9370117 3.454071 7.404175 2.548561zm14.396362 -1.2335968c2.0577393 -0.49343872 5.3464355 -3.2073517 4.440918 -3.619423c-1.5616455 -0.6587906 -8.225708 2.385826 -7.732239 3.5380554c0.2467041 0.7401581 0.90545654 0.7401581 3.2913208 0.08136749zm-37.677185 12.832016c-0.9055176 -0.49343872 -2.467163 -0.6561661 -5.183716 -0.6561661c-3.4540405 0 -3.9475098 -0.083992004 -4.194214 -0.7401581c-1.3150024 -3.1259842 10.695496 -3.2099686 12.503906 -0.083984375c1.1522217 1.8923874 -0.57476807 2.6325455 -3.1259766 1.4803085z" fill-rule="evenodd"/><path fill="#b3b3b3" d="m622.83203 53.11286c-12.587952 0 -22.706055 10.118111 -22.706055 22.703415l0 66.22309c0 12.585297 10.118103 22.703415 22.706055 22.703415l69.34906 0c12.585327 0 22.70343 -10.118118 22.70343 -22.703415l0 -66.22309c0 -12.585304 -10.118103 -22.703415 -22.70343 -22.703415z" fill-rule="evenodd"/><defs><radialGradient id="g3b557bacad6_0_0.2" gradientUnits="userSpaceOnUse" gradientTransform="matrix(4.519532432995 0.0 0.0 4.519532432995 0.0 0.0)" spreadMethod="pad" cx="146.4976244352708" cy="16.753272197844534" fx="146.4976244352708" fy="16.753272197844534" r="4.519532203674316"><stop offset="0.0" stop-color="#7dc3d6"/><stop offset="1.0" stop-color="#000000"/></radialGradient></defs><path fill="url(#g3b557bacad6_0_0.2)" d="m648.16797 85.44095c2.7979126 -0.98687744 3.86615 -1.4803162 5.511841 -2.713913c3.456665 -2.713913 5.51178 -9.706039 4.9370117 -16.863518c-0.3307495 -4.031498 -0.41210938 -3.947506 2.1390991 -1.9737549c6.005249 4.6063004 12.503906 12.666664 15.629883 21.63517c0.8215332 2.4671936 2.3858643 3.7821503 0.328125 3.2073517c-8.060364 -2.1391068 -16.204712 -3.7847748 -26.981628 -2.797905c-3.9501343 0.33071136 -4.112854 0.33071136 -1.564331 -0.4934311z" fill-rule="evenodd"/><path fill="#073763" d="m651.4278 87.490814c-4.682373 0 -9.16272 0.31495667 -13.212585 0.994751c-13.16272 2.2204742 -29.614136 7.3202057 -32.246704 10.036743c-0.47509766 0.47244263 -0.6456909 0.6771698 -0.46984863 0.6771698c0.09716797 0 0.3071289 -0.06562042 0.63256836 -0.18373108c6.7611694 -2.1496048 17.690308 -3.3280792 28.62732 -3.3280792c6.2335815 0 12.469788 0.3832016 17.934387 1.1889725c9.543274 1.3989487 9.624634 1.5616837 4.9370117 6.333336c-1.2336426 1.2335968 -2.4698486 2.467186 -2.7165527 2.7139053c-0.39630127 0.41732788 -0.06036377 0.5984268 0.7559204 0.5984268c2.5773926 0 9.94751 -1.8083954 14.380554 -3.8057709l4.031494 -1.8923874l6.8294067 1.0708618c8.711304 1.2545929 16.375305 2.0603714 21.774292 2.0603714c0.25982666 0 0.5144043 0 0.7663574 -0.0052490234l4.440979 0l-1.1522217 -1.2335968c-8.299255 -8.6377945 -33.92914 -15.225723 -55.312378 -15.225723z" fill-rule="evenodd"/><path fill="#b3b3b3" d="m493.94357 53.11286c-12.585297 0 -22.706055 10.118111 -22.706055 22.703415l0 66.22309c0 12.585297 10.120758 22.703415 22.706055 22.703415l69.26511 0c12.587891 0 22.705994 -10.118118 22.705994 -22.703415l0 -66.22309c0 -12.585304 -10.118103 -22.703415 -22.705994 -22.703415z" fill-rule="evenodd"/><defs><linearGradient id="g3b557bacad6_0_0.3" gradientUnits="userSpaceOnUse" gradientTransform="matrix(2.4895121216231226 0.0 0.0 2.4895121216231226 0.0 0.0)" spreadMethod="pad" x1="104.88653720795482" y1="37.98817190495785" x2="104.88652897130108" y2="40.47768402656735"><stop offset="0.0" stop-color="#1f497d"/><stop offset="1.0" stop-color="#737373"/></linearGradient></defs><path fill="url(#g3b557bacad6_0_0.3)" d="m280.44882 100.002625c-5.1810913 -0.7401581 -7.320221 -0.90550995 -12.916016 -0.8241501c-3.6194153 0.083992004 -6.4986877 0 -6.4147034 -0.16272736c0.5747986 -0.5774231 7.979004 -3.1259842 10.692932 -3.7847748c2.3858032 -0.49343872 5.43042 -0.6587906 19.002625 -0.6587906l16.207336 0l-1.5643005 1.3175812c-5.346466 4.524933 -13.572174 5.921257 -25.007874 4.1128616z" fill-rule="evenodd"/><defs><linearGradient id="g3b557bacad6_0_0.4" gradientUnits="userSpaceOnUse" gradientTransform="matrix(4.86183467789991 0.0 0.0 4.86183467789991 0.0 0.0)" spreadMethod="pad" x1="66.60102020296735" y1="21.080237529489427" x2="66.60107503170158" y2="16.21840285189868"><stop offset="0.0" stop-color="#51ab2a"/><stop offset="0.67" stop-color="#000000"/><stop offset="1.0" stop-color="#203e13"/></linearGradient></defs><path fill="url(#g3b557bacad6_0_0.4)" d="m243.26509 100.74278c-1.3149567 -1.8923874 -2.4671936 -5.0183716 -2.4671936 -6.6640396c0 -0.6561737 0.9055176 -1.808403 3.2073517 -4.031502c10.860886 -10.36483 26.818909 -13.572174 47.055115 -9.459312c14.480316 2.9606247 22.45932 4.1128616 28.792664 4.1128616c2.1390991 0 3.9501343 0.16535187 3.9501343 0.33070374c0 1.0682449 -5.923889 4.4409485 -9.624695 5.427826c-6.4986877 1.8110199 -10.036743 1.8110199 -25.666656 0.49343872c-16.370087 -1.4803162 -30.766418 2.1391068 -41.790024 10.530182c-1.892395 1.4803162 -2.0577393 1.3989487 -3.4566956 -0.7401581z" fill-rule="evenodd"/><defs><linearGradient id="g3b557bacad6_0_0.5" gradientUnits="userSpaceOnUse" gradientTransform="matrix(6.118993620316522 0.0 0.0 6.118993620316522 0.0 0.0)" spreadMethod="pad" x1="32.213709932599684" y1="18.072448865423606" x2="32.21377695423957" y2="11.953455245474132"><stop offset="0.0" stop-color="#51ab2a"/><stop offset="1.0" stop-color="#203e13"/></linearGradient></defs><path fill="url(#g3b557bacad6_0_0.5)" d="m110.821526 110.53281c-1.5643082 -0.33070374 -2.4671936 -2.7978973 -2.8792648 -4.937004c-0.41207886 -2.6325455 -6.417328 -12.091866 -6.5826797 -14.724411c0.16535187 -2.1391068 7.32283 0.8215256 13.0813675 -4.1968536c5.7585297 -4.9343796 8.225716 -8.060364 16.61679 -11.3517c8.309708 -3.2073517 16.288712 -2.2204742 24.433075 -1.1496124c11.186356 1.6430511 22.209976 5.9212646 32.821518 11.679794c2.9632568 1.5643005 5.923889 3.3727036 8.803146 5.430443c-0.49343872 1.5616837 -1.8083954 0.5748062 -2.4671783 -0.083984375c-1.4803162 -0.8215256 -3.044632 -1.2335968 -4.524948 -1.808403c-6.4986877 -2.3044586 -13.16272 -3.7034073 -19.826767 -4.031494c-6.826767 -0.6587906 -13.653534 -0.5748062 -20.401566 0.98687744c-12.503937 2.7139053 -24.761162 9.871391 -34.96064 21.307083c-1.3175812 1.1496048 -2.467186 3.2887192 -4.112854 2.8792648z" fill-rule="evenodd"/><defs><linearGradient id="g3b557bacad6_0_0.6" gradientUnits="userSpaceOnUse" gradientTransform="matrix(3.8825082306396084 0.0 0.0 3.8825082306396084 0.0 0.0)" spreadMethod="pad" x1="92.293833932931" y1="24.380077136898713" x2="92.29381280715546" y2="28.262585367480845"><stop offset="0.0" stop-color="#1f497d"/><stop offset="1.0" stop-color="#737373"/></linearGradient></defs><path fill="url(#g3b557bacad6_0_0.6)" d="m408.3701 94.656166c9.212585 0.5748062 20.317566 0.5748062 40.06299 9.377953c0.08135986 0 -0.65878296 0 -1.3989563 -0.16535187c-20.236206 -2.385826 -29.120728 -3.291336 -35.868774 3.0446167c-3.7007751 3.5354385 -3.782135 3.5354385 -8.391052 1.1496124l0 0c-10.858276 -5.6745453 -27.721802 -6.745407 -41.8714 -2.548561c-5.0997314 1.4803162 -2.6325378 2.9606323 7.5695496 -4.031494c9.54068 -6.580055 22.62204 -6.2519684 22.62204 -6.2519684" fill-rule="evenodd"/><defs><linearGradient id="g3b557bacad6_0_0.7" gradientUnits="userSpaceOnUse" gradientTransform="matrix(5.074330110921609 0.0 0.0 5.074330110921609 0.0 0.0)" spreadMethod="pad" x1="74.10620946189155" y1="13.838733586391548" x2="74.10619329798507" y2="18.913063697287413"><stop offset="0.0" stop-color="#ffffff"/><stop offset="1.0" stop-color="#4f81bd"/></linearGradient></defs><path fill="url(#g3b557bacad6_0_0.7)" d="m376.03937 95.97113c8.225739 -6.6640472 9.624664 -15.548561 9.871399 -24.102364c0.083984375 -1.7270355 -0.49343872 -1.645668 1.8110046 -1.645668c10.7769165 0 26.241486 8.225723 37.265106 19.742783c5.6771545 5.9238815 5.6771545 5.7585297 2.7138977 4.8530197c-8.5538025 -2.632553 -12.419922 -3.0419998 -25.419922 -2.0551224c-8.8845215 0.6587906 -12.750671 1.4803162 -13.078766 1.808403" fill-rule="evenodd"/><defs><linearGradient id="g3b557bacad6_0_0.8" gradientUnits="userSpaceOnUse" gradientTransform="matrix(2.9693538721537345 0.0 0.0 2.9693538721537345 0.0 0.0)" spreadMethod="pad" x1="131.571524149391" y1="31.207421278944576" x2="131.5715103381376" y2="34.176775151066195"><stop offset="0.0" stop-color="#6aa84f"/><stop offset="1.0" stop-color="#737373"/></linearGradient></defs><path fill="url(#g3b557bacad6_0_0.8)" d="m443.9895 101.48294c-10.858276 -6.005249 -19.24936 -7.1574783 -25.419952 -8.309715c-7.813629 -1.3149567 -16.53543 0.1653595 -27.887146 1.72966c21.800537 -1.72966 35.29135 -0.6587906 53.3071 6.580055z" fill-rule="evenodd"/><defs><linearGradient id="g3b557bacad6_0_0.9" gradientUnits="userSpaceOnUse" gradientTransform="matrix(6.64638881613786 0.0 0.0 6.64638881613786 0.0 0.0)" spreadMethod="pad" x1="86.19958677366454" y1="17.118573857489125" x2="86.1996546474375" y2="10.472185041697832"><stop offset="0.0" stop-color="#51ab2a"/><stop offset="0.67" stop-color="#000000"/><stop offset="1.0" stop-color="#203e13"/></linearGradient></defs><path fill="url(#g3b557bacad6_0_0.9)" d="m527.8163 111.43569c-3.7008057 -6.3333282 -17.438324 -15.87664 -24.102386 -16.61679c-3.8661194 -0.49343872 -4.4435425 0.6587906 -2.0577393 4.4435654c2.7979126 4.524933 0.41207886 3.9475098 -3.9475098 -0.90550995c-5.3464355 -6.005249 -8.803131 -13.902885 -9.543304 -22.209976c-0.65878296 -6.9921265 -0.16534424 -7.238846 7.979004 -3.456688c3.5380554 1.5643005 8.062988 3.456688 10.202118 4.112854c5.5118103 1.8110275 3.7007751 1.6456757 8.307098 3.0446243c3.456665 1.0708618 14.314941 6.170601 14.8897705 6.9921265c0.16534424 0.33070374 2.3858032 -0.6587982 4.9369507 -2.0551224c4.687683 -2.6325455 12.916016 -6.005249 19.742798 -8.309708c3.86615 -1.2335968 11.682434 -4.524933 14.724426 -6.2519684c8.968506 -4.934387 1.3175659 20.895012 -8.8845215 29.698158c-3.9475098 3.454071 -5.3464355 3.0419998 -2.1364746 -0.5774231c5.4277954 -6.005249 -0.9055176 -7.238846 -10.202087 -1.8923874c-5.5932007 3.2099686 -12.257263 8.968498 -15.38324 13.409447c-2.6325073 3.7847748 -2.7138672 3.7847748 -4.5249023 0.5747986z" fill-rule="evenodd"/><path fill="#000000" fill-opacity="0.0" d="m92.27165 113.8832l114.01575 0l0 33.921257l-114.01575 0z" fill-rule="evenodd"/><path fill="#454245" d="m122.163734 141.15382q-2.328125 0 -4.3125 -0.734375q-1.96875 -0.75 -3.40625 -2.125q-1.4375 -1.375 -2.25 -3.234375q-0.8125 -1.859375 -0.8125 -4.09375q0 -2.25 0.8125 -4.109375q0.8125 -1.859375 2.25 -3.234375q1.4375 -1.375 3.40625 -2.109375q1.984375 -0.734375 4.3125 -0.734375q2.71875 0 4.859375 0.953125q2.1406326 0.9375 3.5625076 2.734375l-3.5312576 3.1875q-0.9375 -1.109375 -2.078125 -1.703125q-1.140625 -0.59375 -2.53125 -0.59375q-1.203125 0 -2.21875 0.40625q-1.0 0.390625 -1.71875 1.140625q-0.71875 0.734375 -1.125 1.765625q-0.40625 1.03125 -0.40625 2.296875q0 1.25 0.40625 2.296875q0.40625 1.03125 1.125 1.78125q0.71875 0.734375 1.71875 1.125q1.015625 0.390625 2.21875 0.390625q1.390625 0 2.53125 -0.578125q1.140625 -0.59375 2.078125 -1.71875l3.5312576 3.203125q-1.421875 1.75 -3.5625076 2.71875q-2.140625 0.96875 -4.859375 0.96875zm7.979088 -0.390625l8.65625 -19.59375l5.453125 0l8.6875 19.59375l-5.78125 0l-6.765625 -16.890625l2.1875 0l-6.78125 16.890625l-5.65625 0zm4.734375 -3.8125l1.421875 -4.078125l9.578125 0l1.421875 4.078125l-12.421875 0zm23.074219 3.8125l0 -8.28125l1.28125 3.328125l-8.765625 -14.640625l5.859375 0l6.328125 10.609375l-3.390625 0l6.359375 -10.609375l5.375 0l-8.734375 14.640625l1.21875 -3.328125l0 8.28125l-5.53125 0zm20.90596 0.390625q-2.40625 0 -4.640625 -0.59375q-2.21875 -0.609375 -3.609375 -1.5625l1.8125 -4.09375q1.3125 0.84375 3.03125 1.390625q1.734375 0.546875 3.4375 0.546875q1.15625 0 1.84375 -0.203125q0.703125 -0.21875 1.015625 -0.5625q0.328125 -0.359375 0.328125 -0.828125q0 -0.671875 -0.609375 -1.0625q-0.609375 -0.390625 -1.59375 -0.640625q-0.984375 -0.25 -2.171875 -0.5q-1.1875 -0.265625 -2.390625 -0.65625q-1.1875 -0.390625 -2.171875 -1.015625q-0.96875 -0.640625 -1.59375 -1.65625q-0.609375 -1.015625 -0.609375 -2.59375q0 -1.765625 0.96875 -3.1875q0.96875 -1.421875 2.890625 -2.28125q1.9375 -0.875 4.828125 -0.875q1.921875 0 3.78125 0.4375q1.875 0.421875 3.328125 1.265625l-1.703125 4.109375q-1.40625 -0.75 -2.78125 -1.125q-1.375 -0.390625 -2.65625 -0.390625q-1.15625 0 -1.859375 0.25q-0.6875 0.234375 -1.0 0.625q-0.3125 0.390625 -0.3125 0.890625q0 0.65625 0.59375 1.03125q0.609375 0.375 1.609375 0.609375q1.0 0.234375 2.1875 0.5q1.1875 0.25 2.375 0.625q1.1875 0.375 2.171875 1.015625q0.984375 0.625 1.578125 1.65625q0.609375 1.015625 0.609375 2.546875q0 1.703125 -0.96875 3.15625q-0.96875 1.4375 -2.890625 2.3125q-1.90625 0.859375 -4.828125 0.859375z" fill-rule="nonzero"/><path fill="#000000" fill-opacity="0.0" d="m218.69029 113.8832l114.01573 0l0 33.921257l-114.01573 0z" fill-rule="evenodd"/><path fill="#454245" d="m247.71762 141.15382q-2.328125 0 -4.328125 -0.734375q-1.984375 -0.75 -3.421875 -2.125q-1.4375 -1.375 -2.25 -3.234375q-0.8125 -1.859375 -0.8125 -4.09375q0 -2.25 0.8125 -4.109375q0.8125 -1.859375 2.265625 -3.234375q1.453125 -1.375 3.453125 -2.109375q2.0 -0.734375 4.390625 -0.734375q2.765625 0 4.953125 0.921875q2.1875 0.921875 3.609375 2.65625l-3.53125 3.1875q-1.0 -1.09375 -2.171875 -1.640625q-1.15625 -0.546875 -2.578125 -0.546875q-1.265625 0 -2.3125 0.40625q-1.03125 0.390625 -1.765625 1.140625q-0.71875 0.734375 -1.125 1.75q-0.40625 1.015625 -0.40625 2.3125q0 1.234375 0.40625 2.265625q0.40625 1.03125 1.125 1.78125q0.734375 0.734375 1.75 1.140625q1.03125 0.40625 2.265625 0.40625q1.234375 0 2.40625 -0.40625q1.1875 -0.40625 2.390625 -1.375l3.09375 3.890625q-1.671875 1.203125 -3.890625 1.84375q-2.203125 0.640625 -4.328125 0.640625zm8.21875 -2.484375l-4.890625 -0.734375l0 -7.390625l4.890625 0l0 8.125zm8.497589 2.09375l0 -8.28125l1.28125 3.328125l-8.765625 -14.640625l5.859375 0l6.328125 10.609375l-3.390625 0l6.359375 -10.609375l5.375 0l-8.734375 14.640625l1.21875 -3.328125l0 8.28125l-5.53125 0zm14.211334 0l0 -19.59375l8.96875 0q2.6875 0 4.625 0.875q1.953125 0.859375 3.015625 2.5q1.0625 1.625 1.0625 3.875q0 2.203125 -1.0625 3.828125q-1.0625 1.625 -3.015625 2.515625q-1.9375 0.875 -4.625 0.875l-5.875 0l2.453125 -2.40625l0 7.53125l-5.546875 0zm5.546875 -6.9375l-2.453125 -2.546875l5.53125 0q1.734375 0 2.59375 -0.75q0.859375 -0.765625 0.859375 -2.109375q0 -1.375 -0.859375 -2.125q-0.859375 -0.765625 -2.59375 -0.765625l-5.53125 0l2.453125 -2.546875l0 10.84375zm21.979828 7.328125q-2.40625 0 -4.640625 -0.59375q-2.21875 -0.609375 -3.609375 -1.5625l1.8125 -4.09375q1.3125 0.84375 3.03125 1.390625q1.734375 0.546875 3.4375 0.546875q1.15625 0 1.84375 -0.203125q0.703125 -0.21875 1.015625 -0.5625q0.328125 -0.359375 0.328125 -0.828125q0 -0.671875 -0.609375 -1.0625q-0.609375 -0.390625 -1.59375 -0.640625q-0.984375 -0.25 -2.171875 -0.5q-1.1875 -0.265625 -2.390625 -0.65625q-1.1875 -0.390625 -2.171875 -1.015625q-0.96875 -0.640625 -1.59375 -1.65625q-0.609375 -1.015625 -0.609375 -2.59375q0 -1.765625 0.96875 -3.1875q0.96875 -1.421875 2.890625 -2.28125q1.9375 -0.875 4.828125 -0.875q1.921875 0 3.78125 0.4375q1.875 0.421875 3.328125 1.265625l-1.703125 4.109375q-1.40625 -0.75 -2.78125 -1.125q-1.375 -0.390625 -2.65625 -0.390625q-1.15625 0 -1.859375 0.25q-0.6875 0.234375 -1.0 0.625q-0.3125 0.390625 -0.3125 0.890625q0 0.65625 0.59375 1.03125q0.609375 0.375 1.609375 0.609375q1.0 0.234375 2.1875 0.5q1.1875 0.25 2.375 0.625q1.1875 0.375 2.171875 1.015625q0.984375 0.625 1.578125 1.65625q0.609375 1.015625 0.609375 2.546875q0 1.703125 -0.96875 3.15625q-0.96875 1.4375 -2.890625 2.3125q-1.90625 0.859375 -4.828125 0.859375z" fill-rule="nonzero"/><path fill="#000000" fill-opacity="0.0" d="m345.1496 113.8832l114.01575 0l0 33.921257l-114.01575 0z" fill-rule="evenodd"/><path fill="#454245" d="m366.99646 140.7632l0 -19.59375l8.765625 0q4.296875 0 6.59375 1.953125q2.3125 1.9375 2.3125 5.296875q0 2.203125 -1.0625 3.8125q-1.0625 1.609375 -3.015625 2.46875q-1.9375 0.859375 -4.625 0.859375l-5.875 0l2.453125 -2.328125l0 7.53125l-5.546875 0zm12.125 0l-4.859375 -7.140625l5.90625 0l4.890625 7.140625l-5.9375 0zm-6.578125 -6.9375l-2.453125 -2.546875l5.53125 0q1.734375 0 2.59375 -0.75q0.859375 -0.765625 0.859375 -2.109375q0 -1.375 -0.859375 -2.125q-0.859375 -0.765625 -2.59375 -0.765625l-5.53125 0l2.453125 -2.546875l0 10.84375zm12.829468 6.9375l8.65625 -19.59375l5.453125 0l8.6875 19.59375l-5.78125 0l-6.765625 -16.890625l2.1875 0l-6.78125 16.890625l-5.65625 0zm4.734375 -3.8125l1.421875 -4.078125l9.578125 0l1.421875 4.078125l-12.421875 0zm19.617462 3.8125l0 -19.59375l5.546875 0l0 19.59375l-5.546875 0zm7.148285 0l8.65625 -19.59375l5.453125 0l8.6875 19.59375l-5.78125 0l-6.765625 -16.890625l2.1875 0l-6.78125 16.890625l-5.65625 0zm4.734375 -3.8125l1.421875 -4.078125l9.578125 0l1.421875 4.078125l-12.421875 0z" fill-rule="nonzero"/><path fill="#000000" fill-opacity="0.0" d="m471.56824 113.8832l114.01575 0l0 33.921257l-114.01575 0z" fill-rule="evenodd"/><path fill="#454245" d="m492.07108 140.7632l0 -19.59375l5.546875 0l0 15.203125l9.359375 0l0 4.390625l-14.90625 0zm20.060822 0l0 -8.28125l1.28125 3.328125l-8.765625 -14.640625l5.859375 0l6.328125 10.609375l-3.390625 0l6.359375 -10.609375l5.375 0l-8.734375 14.640625l1.21875 -3.328125l0 8.28125l-5.53125 0zm14.211304 0l0 -19.59375l4.578125 0l10.796875 13.046875l-2.15625 0l0 -13.046875l5.4375 0l0 19.59375l-4.5625 0l-10.8125 -13.046875l2.15625 0l0 13.046875l-5.4375 0zm19.992493 0l8.578125 -11.90625l-0.03125 3.953125l-8.234375 -11.640625l6.25 0l5.265625 7.578125l-2.671875 0.03125l5.1875 -7.609375l5.984375 0l-8.21875 11.421875l0 -3.921875l8.671875 12.09375l-6.375 0l-5.359375 -7.984375l2.546875 0l-5.265625 7.984375l-6.328125 0z" fill-rule="nonzero"/><path fill="#000000" fill-opacity="0.0" d="m600.49866 113.8832l114.01581 0l0 33.921257l-114.01581 0z" fill-rule="evenodd"/><path fill="#454245" d="m613.3155 140.7632l0 -19.59375l4.578125 0l8.109375 13.328125l-2.40625 0l7.890625 -13.328125l4.578125 0l0.046875 19.59375l-5.09375 0l-0.0625 -11.84375l0.875 0l-5.90625 9.90625l-2.46875 0l-6.078125 -9.90625l1.0625 0l0 11.84375l-5.125 0zm24.368347 0l8.65625 -19.59375l5.453125 0l8.6875 19.59375l-5.78125 0l-6.765625 -16.890625l2.1875 0l-6.78125 16.890625l-5.65625 0zm4.734375 -3.8125l1.421875 -4.078125l9.578125 0l1.421875 4.078125l-12.421875 0zm24.586243 -0.53125l-0.3125 -6.21875l8.421875 -9.03125l6.109375 0l-8.40625 9.09375l-3.078125 3.21875l-2.734375 2.9375zm-4.96875 4.34375l0 -19.59375l5.5 0l0 19.59375l-5.5 0zm13.171875 0l-6.390625 -8.09375l3.609375 -3.859375l9.21875 11.953125l-6.4375 0zm16.598816 0.390625q-2.359375 0 -4.34375 -0.75q-1.984375 -0.765625 -3.453125 -2.140625q-1.46875 -1.390625 -2.28125 -3.234375q-0.8125 -1.859375 -0.8125 -4.0625q0 -2.21875 0.8125 -4.0625q0.8125 -1.84375 2.28125 -3.234375q1.46875 -1.390625 3.453125 -2.140625q1.984375 -0.75 4.34375 -0.75q2.375 0 4.34375 0.75q1.984375 0.75 3.4375 2.140625q1.453125 1.390625 2.28125 3.234375q0.828125 1.84375 0.828125 4.0625q0 2.203125 -0.828125 4.078125q-0.828125 1.859375 -2.28125 3.234375q-1.453125 1.359375 -3.4375 2.125q-1.96875 0.75 -4.34375 0.75zm0 -4.59375q1.125 0 2.078125 -0.390625q0.96875 -0.390625 1.6875 -1.125q0.71875 -0.75 1.125 -1.78125q0.40625 -1.046875 0.40625 -2.296875q0 -1.296875 -0.40625 -2.3125q-0.40625 -1.015625 -1.125 -1.75q-0.71875 -0.75 -1.6875 -1.140625q-0.953125 -0.40625 -2.078125 -0.40625q-1.125 0 -2.09375 0.40625q-0.953125 0.390625 -1.671875 1.140625q-0.71875 0.734375 -1.125 1.75q-0.40625 1.015625 -0.40625 2.3125q0 1.25 0.40625 2.296875q0.40625 1.03125 1.125 1.78125q0.71875 0.734375 1.671875 1.125q0.96875 0.390625 2.09375 0.390625z" fill-rule="nonzero"/><path fill="#000000" fill-opacity="0.0" d="m724.44617 113.8832l114.01575 0l0 33.921257l-114.01575 0z" fill-rule="evenodd"/><path fill="#454245" d="m757.7237 141.15382q-2.359375 0 -4.34375 -0.75q-1.984375 -0.765625 -3.453125 -2.140625q-1.46875 -1.390625 -2.28125 -3.234375q-0.8125 -1.859375 -0.8125 -4.0625q0 -2.21875 0.8125 -4.0625q0.8125 -1.84375 2.28125 -3.234375q1.46875 -1.390625 3.453125 -2.140625q1.984375 -0.75 4.34375 -0.75q2.375 0 4.34375 0.75q1.984375 0.75 3.4375 2.140625q1.453125 1.390625 2.28125 3.234375q0.828125 1.84375 0.828125 4.0625q0 2.203125 -0.828125 4.078125q-0.828125 1.859375 -2.28125 3.234375q-1.453125 1.359375 -3.4375 2.125q-1.96875 0.75 -4.34375 0.75zm0 -4.59375q1.125 0 2.078125 -0.390625q0.96875 -0.390625 1.6875 -1.125q0.71875 -0.75 1.125 -1.78125q0.40625 -1.046875 0.40625 -2.296875q0 -1.296875 -0.40625 -2.3125q-0.40625 -1.015625 -1.125 -1.75q-0.71875 -0.75 -1.6875 -1.140625q-0.953125 -0.40625 -2.078125 -0.40625q-1.125 0 -2.09375 0.40625q-0.953125 0.390625 -1.671875 1.140625q-0.71875 0.734375 -1.125 1.75q-0.40625 1.015625 -0.40625 2.3125q0 1.25 0.40625 2.296875q0.40625 1.03125 1.125 1.78125q0.71875 0.734375 1.671875 1.125q0.96875 0.390625 2.09375 0.390625zm23.578674 4.59375q-2.328125 0 -4.3125 -0.734375q-1.96875 -0.75 -3.40625 -2.125q-1.4375 -1.375 -2.25 -3.234375q-0.8125 -1.859375 -0.8125 -4.09375q0 -2.25 0.8125 -4.109375q0.8125 -1.859375 2.25 -3.234375q1.4375 -1.375 3.40625 -2.109375q1.984375 -0.734375 4.3125 -0.734375q2.71875 0 4.859375 0.953125q2.140625 0.9375 3.5625 2.734375l-3.53125 3.1875q-0.9375 -1.109375 -2.078125 -1.703125q-1.140625 -0.59375 -2.53125 -0.59375q-1.203125 0 -2.21875 0.40625q-1.0 0.390625 -1.71875 1.140625q-0.71875 0.734375 -1.125 1.765625q-0.40625 1.03125 -0.40625 2.296875q0 1.25 0.40625 2.296875q0.40625 1.03125 1.125 1.78125q0.71875 0.734375 1.71875 1.125q1.015625 0.390625 2.21875 0.390625q1.390625 0 2.53125 -0.578125q1.140625 -0.59375 2.078125 -1.71875l3.53125 3.203125q-1.421875 1.75 -3.5625 2.71875q-2.140625 0.96875 -4.859375 0.96875zm14.578735 -0.390625l0 -15.203125l-6.015625 0l0 -4.390625l17.5625 0l0 4.390625l-6.0 0l0 15.203125l-5.546875 0zm13.608215 0l0 -19.59375l5.546875 0l0 19.59375l-5.546875 0z" fill-rule="nonzero"/></g></svg>