<svg xmlns="http://www.w3.org/2000/svg" fill="none" stroke-linecap="square" stroke-miterlimit="10" viewBox="0 0 780.6 168.8">
  <clipPath id="a">
    <path d="M0 0h780.6v168.8H0V0z"/>
  </clipPath>
  <g clip-path="url(#a)">
    <path d="M0 0h780.6v168.8H0z"/>
    <path fill="#b3b3b3" fill-rule="evenodd" d="M43.6 25.4a22.6 22.6 0 0 0-22.7 22.7v66.3A22.6 22.6 0 0 0 43.6 137h69.3a22.7 22.7 0 0 0 22.7-22.7V48A22.7 22.7 0 0 0 113 25.4zm126.4 0a22.6 22.6 0 0 0-22.7 22.7v66.3a22.6 22.6 0 0 0 22.8 22.7h69.2a22.6 22.6 0 0 0 22.7-22.7V48a22.6 22.6 0 0 0-22.7-22.7zm126.5 0a22.6 22.6 0 0 0-22.7 22.7v66.3a22.6 22.6 0 0 0 22.7 22.7h69.3a22.6 22.6 0 0 0 22.7-22.7V48a22.6 22.6 0 0 0-22.7-22.7zm379.3 0a22.6 22.6 0 0 0-22.7 22.7v66.3a22.6 22.6 0 0 0 22.7 22.7h69.3a22.6 22.6 0 0 0 22.7-22.7V48A22.6 22.6 0 0 0 745 25.4z"/>
    <defs>
      <linearGradient id="b" x1="103.8" x2="103.8" y1="6.4" y2="12.9" gradientTransform="scale(6)" gradientUnits="userSpaceOnUse" spreadMethod="pad">
        <stop offset="0" stop-color="#fff"/>
        <stop offset="1" stop-color="#4f81bd"/>
      </linearGradient>
    </defs>
    <path fill="url(#b)" fill-rule="evenodd" d="M682.4 82.3c-5.4-1-8.8-3.9-8.3-6.8.5-3 2.6-4.3 2.6-1.7.4 8 21.5 5 23-3.3.4-2.5 0-2.9-1.6-2.5-4.9 1.2-10 .2-13.9-2.5-3.5-2.5-4.9-3.2-7.4-3.2-3.7 0-5.4 2.1-3 3.8 2.2 1.6 1 2.1-1.9.9-6.8-2.9-.4-10.3 8-9.6 3.3.4 4 .6 8 3.3 4.6 3 10.2 3.5 6.9.5-9.6-8.3.9-19.9 18-19.9 16.8 0 24.2 10.3 13.9 19.3-2.2 2-2 2.8 1 2.8 1.2 0 6.7-2 6.8-2.6.3-1.9 10.4-3.6 13.8-2.4 6.1 2.2 3.6 9.3-3.3 9.3-2 0-2-.5 0-1 3.3-1 3.8-3.7.7-4.2-2.6-.3-4.8.5-9.8 3.2-5.4 3-7 3.3-11.7 3-3.3-.3-3.8 0-3.4 3.1.5 4.8 5.7 7 11.3 4.7 5.1-2 4.1-6-1-4.7-2.2.4-2.8.2-1.7-.9 1-1 3-1.5 6.5-1.5 2 0 3.3-.1 4.5-.7 2.2-.9 3.6-.7 4.1.5.5 1.3-.4 2.1-2.8 2.6-1.8.4-1.9.4-2.1 2.2-1.9 11-29.3 8.4-28.3-2.7 0-.3-.6.5-1.3 1.8-4.1 7.1-16.6 11.3-27.6 9.2zM706 60.2c1.4-.5-1-2.1-4.3-2.8-3.3-.6-3-.6-3.2.2-.3 1.6 5 3.5 7.5 2.6zm14.3-1.3c2.1-.5 5.4-3.2 4.5-3.6-1.6-.7-8.2 2.4-7.7 3.5.2.8.9.8 3.2.1zm-37.6 12.9c-1-.5-2.5-.7-5.2-.7-3.5 0-4 0-4.2-.7-1.3-3.2 10.7-3.3 12.5-.1 1.2 1.9-.6 2.6-3.1 1.5z"/>
    <path fill="#b3b3b3" fill-rule="evenodd" d="M551.8 25.4a22.6 22.6 0 0 0-22.7 22.7v66.3a22.6 22.6 0 0 0 22.7 22.7h69.4a22.6 22.6 0 0 0 22.7-22.7V48a22.6 22.6 0 0 0-22.7-22.7z"/>
    <defs>
      <radialGradient id="c" cx="130.8" cy="10.6" r="4.5" fx="130.8" fy="10.6" gradientTransform="scale(5)" gradientUnits="userSpaceOnUse" spreadMethod="pad">
        <stop offset="0" stop-color="#7dc3d6"/>
        <stop offset="1"/>
      </radialGradient>
    </defs>
    <path fill="url(#c)" fill-rule="evenodd" d="M577.2 57.8c2.8-1 3.8-1.5 5.5-2.7 3.4-2.8 5.5-9.8 4.9-17-.3-4-.4-3.9 2.1-1.9 6 4.6 12.5 12.7 15.7 21.7.8 2.4 2.4 3.7.3 3.2a71 71 0 0 0-27-2.8c-4 .3-4 .3-1.5-.5z"/>
    <path fill="#073763" fill-rule="evenodd" d="M580.4 59.8c-4.7 0-9.1.3-13.2 1-13.2 2.2-29.6 7.3-32.2 10-.5.5-.7.7-.5.7l.6-.2c6.8-2.1 17.7-3.3 28.6-3.3 6.3 0 12.5.4 18 1.2 9.5 1.4 9.6 1.6 5 6.3l-2.8 2.7c-.4.5 0 .6.8.6A50 50 0 0 0 599 75l4-1.9 6.9 1.1a168 168 0 0 0 21.8 2h5.2l-1.2-1.2c-8.3-8.6-33.9-15.2-55.3-15.2z"/>
    <path fill="#b3b3b3" fill-rule="evenodd" d="M423 25.4a22.6 22.6 0 0 0-22.8 22.7v66.3A22.6 22.6 0 0 0 423 137h69.3a22.6 22.6 0 0 0 22.7-22.7V48a22.6 22.6 0 0 0-22.7-22.7z"/>
    <defs>
      <linearGradient id="d" x1="76.4" x2="76.4" y1="26.9" y2="29.4" gradientTransform="scale(2)" gradientUnits="userSpaceOnUse" spreadMethod="pad">
        <stop offset="0" stop-color="#1f497d"/>
        <stop offset="1" stop-color="#737373"/>
      </linearGradient>
    </defs>
    <path fill="url(#d)" fill-rule="evenodd" d="M209.4 72.3c-5.1-.7-7.3-.9-12.9-.8-3.6 0-6.5 0-6.4-.2.6-.5 8-3 10.7-3.7 2.4-.5 5.4-.7 19-.7H236l-1.6 1.3c-5.3 4.5-13.5 6-25 4.1z"/>
    <defs>
      <linearGradient id="e" x1="51" x2="51" y1="15.4" y2="10.5" gradientTransform="scale(5)" gradientUnits="userSpaceOnUse" spreadMethod="pad">
        <stop offset="0" stop-color="#51ab2a"/>
        <stop offset=".7"/>
        <stop offset="1" stop-color="#203e13"/>
      </linearGradient>
    </defs>
    <path fill="url(#e)" fill-rule="evenodd" d="M167.6 73c-1.4-1.8-2.5-5-2.5-6.6 0-.7.9-1.8 3.2-4 10.9-10.4 26.8-13.6 47-9.5a151.3 151.3 0 0 0 32.8 4.5c0 1-6 4.4-9.6 5.4-6.5 1.8-10 1.8-25.7.5A58.8 58.8 0 0 0 171 73.8c-1.9 1.5-2 1.4-3.4-.7z"/>
    <defs>
      <linearGradient id="f" x1="20.6" x2="20.6" y1="13.5" y2="7.4" gradientTransform="scale(6)" gradientUnits="userSpaceOnUse" spreadMethod="pad">
        <stop offset="0" stop-color="#51ab2a"/>
        <stop offset="1" stop-color="#203e13"/>
      </linearGradient>
    </defs>
    <path fill="url(#f)" fill-rule="evenodd" d="M39.8 82.9c-1.6-.4-2.5-2.8-2.9-5-.4-2.6-6.4-12-6.6-14.7.2-2.1 7.4.8 13.1-4.2 5.8-5 8.3-8 16.6-11.4a47.5 47.5 0 0 1 24.5-1.1A100.1 100.1 0 0 1 126 63.6c-.5 1.6-1.8.6-2.5 0-1.4-.9-3-1.3-4.5-1.9a69.6 69.6 0 0 0-19.8-4 63 63 0 0 0-20.4 1 66.1 66.1 0 0 0-35 21.3c-1.3 1.1-2.4 3.3-4 2.9z"/>
    <defs>
      <linearGradient id="g" x1="74" x2="74" y1="17.3" y2="21.1" gradientTransform="scale(4)" gradientUnits="userSpaceOnUse" spreadMethod="pad">
        <stop offset="0" stop-color="#1f497d"/>
        <stop offset="1" stop-color="#737373"/>
      </linearGradient>
    </defs>
    <path fill="url(#g)" fill-rule="evenodd" d="M337.4 67c9.2.6 20.3.6 40 9.4l-1.4-.2c-20.2-2.4-29.1-3.3-35.8 3-3.7 3.6-3.8 3.6-8.4 1.2a60.1 60.1 0 0 0-42-2.6c-5 1.5-2.5 3 7.7-4 9.5-6.6 22.6-6.2 22.6-6.2"/>
    <defs>
      <linearGradient id="h" x1="60.1" x2="60.1" y1="8.4" y2="13.5" gradientTransform="scale(5)" gradientUnits="userSpaceOnUse" spreadMethod="pad">
        <stop offset="0" stop-color="#fff"/>
        <stop offset="1" stop-color="#4f81bd"/>
      </linearGradient>
    </defs>
    <path fill="url(#h)" fill-rule="evenodd" d="M305 68.3c8.3-6.7 9.7-15.6 9.9-24.1 0-1.7-.5-1.7 1.8-1.7 10.8 0 26.3 8.3 37.3 19.8 5.7 6 5.7 5.7 2.7 4.8a55 55 0 0 0-25.4-2 53 53 0 0 0-13.1 1.8"/>
    <defs>
      <linearGradient id="i" x1="107.7" x2="107.7" y1="21.9" y2="24.9" gradientTransform="scale(3)" gradientUnits="userSpaceOnUse" spreadMethod="pad">
        <stop offset="0" stop-color="#6aa84f"/>
        <stop offset="1" stop-color="#737373"/>
      </linearGradient>
    </defs>
    <path fill="url(#i)" fill-rule="evenodd" d="M373 73.8c-10.9-6-19.3-7.1-25.4-8.3-7.9-1.3-16.6.2-28 1.7 21.9-1.7 35.4-.6 53.4 6.6z"/>
    <defs>
      <linearGradient id="j" x1="75.5" x2="75.5" y1="13" y2="6.3" gradientTransform="scale(7)" gradientUnits="userSpaceOnUse" spreadMethod="pad">
        <stop offset="0" stop-color="#51ab2a"/>
        <stop offset=".7"/>
        <stop offset="1" stop-color="#203e13"/>
      </linearGradient>
    </defs>
    <path fill="url(#j)" fill-rule="evenodd" d="M456.8 83.8A46.6 46.6 0 0 0 432.7 67c-3.9-.4-4.4.7-2 4.5 2.7 4.5.4 4-4-1-5.4-6-8.8-13.8-9.5-22.1-.7-7-.2-7.3 8-3.5 3.5 1.6 8 3.5 10.1 4.1 5.5 1.8 3.7 1.7 8.3 3a89 89 0 0 1 15 7c.1.4 2.3-.6 4.9-2 4.7-2.6 12.9-6 19.7-8.3a110 110 0 0 0 14.7-6.3c9-4.9 1.4 21-8.9 29.7-3.9 3.5-5.3 3-2-.5 5.3-6-1-7.3-10.3-2-5.6 3.3-12.2 9-15.4 13.5-2.6 3.8-2.7 3.8-4.5.6z"/>
    <path d="M21.3 86.2h114v34h-114z"/>
    <path fill="#454245" d="M51.2 113.5q-2.4 0-4.4-.8-2-.7-3.4-2-1.4-1.5-2.2-3.3-.8-1.9-.8-4.1 0-2.3.8-4.1.8-1.9 2.2-3.3 1.5-1.3 3.4-2 2-.8 4.4-.8 2.7 0 4.8 1 2.2.9 3.6 2.7L56 100q-.9-1.1-2-1.7-1.2-.6-2.6-.6-1.2 0-2.2.4-1 .4-1.7 1.1-.7.8-1.1 1.8-.4 1-.4 2.3 0 1.2.4 2.3.4 1 1 1.8.8.7 1.8 1 1 .5 2.2.5 1.4 0 2.6-.6 1.1-.6 2-1.7l3.6 3.2q-1.4 1.7-3.6 2.7-2.1 1-4.8 1zm8-.4 8.6-19.6h5.4L82 113h-5.8l-6.7-16.9h2.2L64.9 113H59zm4.7-3.8 1.4-4.1h9.6l1.4 4H63.9zm23 3.8v-8.3l1.3 3.3-8.7-14.6h5.8l6.3 10.6h-3.3l6.3-10.6h5.4L91.3 108l1.2-3.3v8.3h-5.6zm21 .4q-2.5 0-4.7-.6t-3.6-1.6l1.8-4q1.3.8 3 1.3 1.8.6 3.5.6 1.1 0 1.8-.2.7-.3 1-.6.4-.4.4-.8 0-.7-.6-1-.7-.5-1.6-.7l-2.2-.5-2.4-.7q-1.2-.4-2.2-1-1-.6-1.6-1.7-.6-1-.6-2.6 0-1.7 1-3.1 1-1.5 2.9-2.3 2-.9 4.8-.9 2 0 3.8.4 1.9.5 3.3 1.3L114 99q-1.4-.7-2.8-1.1-1.3-.4-2.6-.4-1.2 0-1.9.3-.7.2-1 .6-.3.4-.3.9 0 .6.6 1t1.6.6l2.2.5 2.4.6q1.2.4 2.1 1 1 .7 1.6 1.7.6 1 .6 2.6 0 1.7-1 3.1-1 1.4-2.8 2.3-2 .9-4.9.9z"/>
    <path d="M147.7 86.2h114v34h-114z"/>
    <path fill="#454245" d="M176.7 113.5q-2.3 0-4.3-.8-2-.7-3.4-2-1.5-1.5-2.3-3.3-.8-1.9-.8-4.1 0-2.3.8-4.1.8-1.9 2.3-3.3 1.4-1.3 3.4-2 2-.8 4.4-.8 2.8 0 5 1 2.2.8 3.6 2.6l-3.6 3.2q-1-1.1-2.1-1.7-1.2-.5-2.6-.5-1.3 0-2.3.4-1 .4-1.8 1.1-.7.8-1.1 1.8-.4 1-.4 2.3 0 1.2.4 2.3.4 1 1.1 1.7.8.8 1.8 1.2 1 .4 2.2.4 1.3 0 2.4-.4 1.2-.4 2.4-1.4l3.1 3.9q-1.6 1.2-3.9 1.8-2.2.7-4.3.7zm8.2-2.5-4.9-.7v-7.4h5v8zm8.5 2v-8.2l1.3 3.3-8.8-14.6h5.9l6.3 10.6h-3.4l6.4-10.6h5.4l-8.8 14.6 1.3-3.3v8.3h-5.6zm14.2 0V93.6h9q2.7 0 4.6.9 2 .8 3 2.5 1.1 1.6 1.1 3.8 0 2.2-1 3.9-1.1 1.6-3 2.5-2 .9-4.7.9h-5.9l2.5-2.4v7.5h-5.6zm5.6-6.8-2.5-2.6h5.6q1.7 0 2.6-.7.8-.8.8-2.2 0-1.3-.8-2-1-.8-2.6-.8h-5.6l2.5-2.6v10.9zm22 7.3q-2.4 0-4.7-.6-2.2-.6-3.6-1.6l1.8-4q1.3.8 3 1.3 1.8.6 3.5.6 1.1 0 1.8-.2.7-.3 1-.6.4-.4.4-.8 0-.7-.6-1-.6-.5-1.6-.7l-2.2-.5-2.4-.7q-1.2-.4-2.2-1-1-.6-1.6-1.7-.6-1-.6-2.6 0-1.7 1-3.1 1-1.5 2.9-2.3 2-.9 4.8-.9 2 0 3.8.4 1.9.5 3.3 1.3l-1.7 4.1q-1.4-.7-2.8-1.1-1.3-.4-2.6-.4-1.2 0-1.9.3-.7.2-1 .6-.3.4-.3.9 0 .6.6 1t1.6.6l2.2.5 2.4.6q1.2.4 2.2 1 1 .7 1.5 1.7.6 1 .6 2.6 0 1.7-1 3.1-.9 1.4-2.8 2.3-2 .9-4.8.9z"/>
    <path d="M274.1 86.2h114v34h-114z"/>
    <path fill="#454245" d="M296 113V93.6h8.7q4.3 0 6.6 2 2.4 1.9 2.4 5.2 0 2.2-1.1 3.9-1 1.6-3 2.4-2 .9-4.6.9h-6l2.5-2.3v7.5H296zm12.1 0-4.9-7h6l4.8 7h-5.9zm-6.6-6.8-2.4-2.6h5.5q1.7 0 2.6-.7.9-.8.9-2.2 0-1.3-.9-2-.9-.8-2.6-.8h-5.5l2.4-2.6v10.9zm12.9 6.9 8.6-19.6h5.5l8.7 19.6h-5.8l-6.8-16.9h2.2l-6.8 16.9h-5.6zm4.7-3.8 1.4-4.1h9.6l1.4 4h-12.4zm19.6 3.8V93.5h5.6V113h-5.6zm7.2 0 8.6-19.6h5.5l8.7 19.6h-5.8L356 96.2h2.2l-6.8 16.9H346zm4.7-3.8 1.4-4.1h9.6l1.4 4h-12.4z"/>
    <path d="M400.6 86.2h114v34h-114z"/>
    <path fill="#454245" d="M421 113V93.6h5.6v15.2h9.4v4.4h-15zm20.1 0v-8.2l1.3 3.3-8.8-14.6h5.9l6.3 10.6h-3.4l6.4-10.6h5.4l-8.8 14.6 1.3-3.3v8.3H441zm14.2 0V93.6h4.6l10.8 13h-2.2v-13h5.5V113h-4.6l-10.8-13h2.2v13h-5.5zm20 0 8.6-11.8v4l-8.3-11.7h6.3l5.3 7.6h-2.7l5.2-7.6h6l-8.3 11.4v-4l8.7 12.2h-6.4l-5.3-8h2.5l-5.2 8h-6.4z"/>
    <path d="M529.5 86.2h114v34h-114z"/>
    <path fill="#454245" d="M542.3 113V93.6h4.6l8 13.3h-2.3l7.9-13.3h4.6V113h-5l-.2-11.9h1l-6 10h-2.5l-6-10h1V113h-5.1zm24.4 0 8.6-19.5h5.5l8.7 19.6h-5.8l-6.8-16.9h2.2l-6.8 16.9h-5.6zm4.7-3.7 1.4-4.1h9.6l1.4 4h-12.4zm24.6-.6-.3-6.2 8.4-9h6.1l-8.4 9-3 3.3-2.8 3zm-5 4.4V93.5h5.5V113H591zm13.2 0-6.4-8.1 3.6-3.9 9.2 12h-6.4zm16.6.4q-2.4 0-4.4-.8-2-.7-3.4-2.1-1.5-1.4-2.3-3.2-.8-2-.8-4.1 0-2.2.8-4 .8-2 2.3-3.3 1.5-1.4 3.4-2.1 2-.8 4.4-.8 2.4 0 4.3.8 2 .7 3.5 2 1.4 1.5 2.3 3.3.8 1.9.8 4 0 2.3-.8 4.2-.9 1.8-2.3 3.2-1.5 1.4-3.5 2.1-2 .8-4.3.8zm0-4.6q1.1 0 2-.4 1-.4 1.8-1.1.7-.8 1-1.8.5-1 .5-2.3 0-1.3-.4-2.3-.4-1-1.1-1.8-.8-.7-1.7-1.1-1-.4-2.1-.4t-2.1.4q-1 .4-1.7 1.1-.7.8-1.1 1.8-.4 1-.4 2.3 0 1.2.4 2.3.4 1 1.1 1.8.7.7 1.7 1 1 .5 2 .5z"/>
    <path d="M653.4 86.2h114v34h-114z"/>
    <path fill="#454245" d="M686.7 113.5q-2.3 0-4.3-.8-2-.7-3.5-2.1-1.5-1.4-2.3-3.2-.8-2-.8-4.1 0-2.2.8-4 .8-2 2.3-3.3 1.5-1.4 3.5-2.1 2-.8 4.3-.8 2.4 0 4.4.8 2 .7 3.4 2 1.4 1.5 2.3 3.3.8 1.9.8 4 0 2.3-.8 4.2-.9 1.8-2.3 3.2-1.5 1.4-3.4 2.1-2 .8-4.4.8zm0-4.6q1.1 0 2-.4 1-.4 1.8-1.1.7-.8 1.1-1.8.4-1 .4-2.3 0-1.3-.4-2.3-.4-1-1.1-1.8-.7-.7-1.7-1.1-1-.4-2-.4-1.2 0-2.2.4-1 .4-1.7 1.1-.7.8-1 1.8-.5 1-.5 2.3 0 1.2.4 2.3.4 1 1.1 1.8.8.7 1.7 1 1 .5 2.1.5zm23.6 4.6q-2.3 0-4.3-.8-2-.7-3.4-2-1.5-1.5-2.3-3.3-.8-1.9-.8-4.1 0-2.3.8-4.1.8-1.9 2.3-3.3 1.4-1.3 3.4-2 2-.8 4.3-.8 2.7 0 4.8 1 2.2.9 3.6 2.7l-3.5 3.2q-1-1.1-2.1-1.7-1.1-.6-2.5-.6-1.2 0-2.2.4-1 .4-1.8 1.1-.7.8-1 1.8-.5 1-.5 2.3 0 1.2.4 2.3.4 1 1.1 1.8.8.7 1.8 1 1 .5 2.2.5 1.4 0 2.5-.6t2-1.7l3.6 3.2q-1.4 1.7-3.6 2.7-2 1-4.8 1zm14.6-.4V97.9h-6v-4.4h17.5v4.4h-6V113H725zm13.6 0V93.5h5.5V113h-5.5z"/>
  </g>
</svg>
